<svg xmlns="http://www.w3.org/2000/svg" viewBox="0 0 388.72 151.63"><path d="M296.69,119.36a29.75,29.75,0,0,0-7.24-16.42l-5-4.49a29.56,29.56,0,0,0-17.22-5.52H229.66l-6.87,6.7h44.46a22.9,22.9,0,0,1,12.41,3.64L271.93,111a56.94,56.94,0,0,1-40,16.57H160.45A57,57,0,0,1,126.21,116l-7.43-6.69L16.16,6.69H63.58a67.63,67.63,0,0,1,47.47,19.66l63.52,63.52a33.49,33.49,0,0,0,23.54,9.76h5.58L202,101.36a25.69,25.69,0,0,1-18.53,8H129.88s4.47,5.27,9.42,6.69h44.2a32.4,32.4,0,0,0,23.38-10l6-6.35,6.37-6.7L279.18,30a67.64,67.64,0,0,1,47.44-19.63h45.94L290.27,92.65a43.62,43.62,0,0,1,4.83,4.64L388.72,3.67h-62.1a74.34,74.34,0,0,0-52.2,21.62L210.05,92.93H198.11a26.79,26.79,0,0,1-18.81-7.79L115.78,21.62A74.34,74.34,0,0,0,63.58,0H0L109.31,109.31H39.43v3.35a39,39,0,0,0,39,39H322.6v-3.35A29.13,29.13,0,0,0,296.69,119.36ZM78.4,144.93A32.31,32.31,0,0,1,46.3,116H116a63.71,63.71,0,0,0,44.45,18.25h71.49a63.68,63.68,0,0,0,44.72-18.52l8-8a23,23,0,0,1,5.46,14.85v3.34h3.35a22.43,22.43,0,0,1,22.15,19.05Z"/></svg>