<svg xmlns="http://www.w3.org/2000/svg" viewBox="0 0 841.89 566.93"><rect width="841.89" height="566.93" style="fill:#fff"/><path d="M521.27,307A29.65,29.65,0,0,0,514,290.61l-5-4.49a29.56,29.56,0,0,0-17.22-5.52H454.25l-6.88,6.69h44.47a23,23,0,0,1,12.4,3.64l-7.72,7.73a57,57,0,0,1-40,16.56H385a57,57,0,0,1-34.23-11.55l-7.44-6.7L240.74,194.36h47.43A67.55,67.55,0,0,1,335.63,214l63.52,63.52a33.52,33.52,0,0,0,23.54,9.75h5.58L426.62,289A25.7,25.7,0,0,1,408.08,297H354.46s4.47,5.27,9.42,6.7h44.2a32.45,32.45,0,0,0,23.39-10l6-6.35,6.37-6.69,59.89-62.94A67.55,67.55,0,0,1,551.2,198h45.95l-82.29,82.29a44.45,44.45,0,0,1,4.83,4.63l93.61-93.62H551.2A74.32,74.32,0,0,0,499,213L434.64,280.6H422.69a26.78,26.78,0,0,1-18.81-7.8l-63.52-63.52a74.36,74.36,0,0,0-52.19-21.62H224.59L333.9,297H264v3.35a39,39,0,0,0,39,39H547.19v-3.35A29.13,29.13,0,0,0,521.27,307ZM303,332.6a32.32,32.32,0,0,1-32.1-28.93h69.71A63.68,63.68,0,0,0,385,321.91h71.5a63.68,63.68,0,0,0,44.72-18.52l8-8a22.93,22.93,0,0,1,5.47,14.85v3.35h3.35a22.42,22.42,0,0,1,22.14,19.05Z" style="fill:#fff"/><text transform="translate(340.27 396.52)" style="font-size:47.46857833862305px;fill:#fff;font-family:Montserrat-SemiBold, Montserrat;font-weight:600;letter-spacing:0.0630145465103636em">V<tspan x="37.6" y="0" style="letter-spacing:0.09000608585793038em">A</tspan><tspan x="77.42" y="0" style="letter-spacing:0.1000044761955199em">OP</tspan></text><text transform="translate(202.66 433.76)" style="font-size:31.260400772094727px;fill:#fff;font-family:Montserrat-UltraLight, Montserrat UltraLight;font-weight:100">vi<tspan x="22.35" y="0" style="letter-spacing:0.023976395063337378em">r</tspan><tspan x="33.32" y="0">tual ai</tspan><tspan x="112.35" y="0" style="letter-spacing:0.003998669144113596em">r</tspan><tspan x="122.69" y="0" style="letter-spacing:-0.000015619801344193734em">line ope</tspan><tspan x="227.63" y="0" style="letter-spacing:-0.004967096827453607em">r</tspan><tspan x="237.7" y="0" style="letter-spacing:-0.003998669144113596em">a</tspan><tspan x="252.64" y="0">tions pl</tspan><tspan x="348.98" y="0" style="letter-spacing:-0.003998669144113596em">a</tspan><tspan x="363.93" y="0" style="letter-spacing:0.00003123960268838747em">t</tspan><tspan x="374.27" y="0" style="letter-spacing:-0.012995674718369186em">f</tspan><tspan x="383" y="0">o</tspan><tspan x="400.16" y="0" style="letter-spacing:0.003998669144113596em">r</tspan><tspan x="410.5" y="0">m</tspan></text></svg>