<svg xmlns="http://www.w3.org/2000/svg" viewBox="0 0 986 566.93"><rect width="986" height="566.93" style="fill:#fff"/><path d="M313.53,307a29.72,29.72,0,0,0-7.24-16.42l-5-4.49a29.53,29.53,0,0,0-17.22-5.52H246.51l-6.88,6.69h44.46a23,23,0,0,1,12.41,3.64l-7.73,7.73a57,57,0,0,1-40,16.56h-71.5a57,57,0,0,1-34.24-11.55l-7.43-6.7L33,194.36H80.43A67.58,67.58,0,0,1,127.89,214l63.52,63.52A33.52,33.52,0,0,0,215,287.29h5.58L218.87,289A25.68,25.68,0,0,1,200.34,297H146.72s4.47,5.27,9.42,6.7h44.2a32.41,32.41,0,0,0,23.38-10l6.05-6.35,6.37-6.69L296,217.66A67.55,67.55,0,0,1,343.46,198H389.4l-82.29,82.29a42.7,42.7,0,0,1,4.83,4.63l93.62-93.62h-62.1A74.34,74.34,0,0,0,291.26,213L226.9,280.6H215a26.76,26.76,0,0,1-18.81-7.8l-63.52-63.52a74.36,74.36,0,0,0-52.19-21.62H16.84L126.15,297H56.27v3.35a39,39,0,0,0,39,39h244.2v-3.35A29.12,29.12,0,0,0,313.53,307ZM95.24,332.6a32.32,32.32,0,0,1-32.1-28.93h69.71a63.68,63.68,0,0,0,44.44,18.24h71.5a63.72,63.72,0,0,0,44.72-18.52l8-8A23,23,0,0,1,307,310.2v3.35h3.34A22.43,22.43,0,0,1,332.5,332.6Z" style="fill:#fff"/><text transform="translate(445.33 301.76) scale(0.92 1)" style="font-size:141.6219482421875px;fill:#fff;font-family:Montserrat-SemiBold, Montserrat;font-weight:600;letter-spacing:0.06301757285428496em">V<tspan x="112.17" y="0" style="letter-spacing:0.09000270977305302em">A</tspan><tspan x="230.99" y="0" style="letter-spacing:0.09999803434683739em">OP</tspan></text><text transform="translate(436.65 332.6)" style="font-size:31.260400772094727px;fill:#fff;font-family:Montserrat-UltraLight, Montserrat UltraLight;font-weight:100">vi<tspan x="22.35" y="0" style="letter-spacing:0.023976395063337378em">r</tspan><tspan x="33.32" y="0">tual ai</tspan><tspan x="112.35" y="0" style="letter-spacing:0.003998669144113596em">r</tspan><tspan x="122.69" y="0" style="letter-spacing:-0.000015619801344193734em">line ope</tspan><tspan x="227.63" y="0" style="letter-spacing:-0.004967096827453607em">r</tspan><tspan x="237.7" y="0" style="letter-spacing:-0.003998669144113596em">a</tspan><tspan x="252.64" y="0">tions pl</tspan><tspan x="348.98" y="0" style="letter-spacing:-0.003998669144113596em">a</tspan><tspan x="363.93" y="0" style="letter-spacing:0.00003123960268838747em">t</tspan><tspan x="374.27" y="0" style="letter-spacing:-0.012995674718369186em">f</tspan><tspan x="383" y="0">o</tspan><tspan x="400.16" y="0" style="letter-spacing:0.003998669144113596em">r</tspan><tspan x="410.5" y="0">m</tspan></text></svg>